<?xml version="1.0" encoding="UTF-8"?>
<svg width="30px" height="30px" viewBox="0 0 30 30" version="1.1" xmlns="http://www.w3.org/2000/svg" xmlns:xlink="http://www.w3.org/1999/xlink">
    <!-- Generator: sketchtool 50.2 (55047) - http://www.bohemiancoding.com/sketch -->
    <title>E90F9950-FA63-407B-B98E-E4D91A4AB389</title>
    <desc>Created with sketchtool.</desc>
    <defs></defs>
    <g id="1.Abertura-de-Conta" stroke="none" stroke-width="1" fill="none" fill-rule="evenodd">
        <g id="3.0.0_Dados_Pessoais" transform="translate(-374.000000, -761.000000)">
            <g id="Group-7" transform="translate(375.000000, 762.000000)">
                <g id="Ic/Ambiente_Seguro">
                    <g id="Group-8">
                        <circle id="Oval-3" stroke="#CDCDCD" cx="14" cy="14" r="14"></circle>
                        <g id="0108-lock" transform="translate(9.000000, 7.000000)" fill="#9B9B9B" fill-rule="nonzero">
                            <path d="M8.84615385,4.61538462 L8.46153846,4.61538462 L8.46153846,3.46153846 C8.46153846,1.55307692 6.90846154,0 5,0 C3.09153846,0 1.53846154,1.55307692 1.53846154,3.46153846 L1.53846154,4.61538462 L1.15384615,4.61538462 C0.517692308,4.61538462 0,5.13307692 0,5.76923077 L0,11.9230769 C0,12.5592308 0.517692308,13.0769231 1.15384615,13.0769231 L8.84615385,13.0769231 C9.48230769,13.0769231 10,12.5592308 10,11.9230769 L10,5.76923077 C10,5.13307692 9.48230769,4.61538462 8.84615385,4.61538462 Z M2.30769231,3.46153846 C2.30769231,1.97692308 3.51538462,0.769230769 5,0.769230769 C6.48461538,0.769230769 7.69230769,1.97692308 7.69230769,3.46153846 L7.69230769,4.61538462 L2.30769231,4.61538462 L2.30769231,3.46153846 Z" id="Shape"></path>
                        </g>
                    </g>
                </g>
            </g>
        </g>
    </g>
</svg>