<svg width="173" height="98" viewBox="0 0 173 98" fill="none" xmlns="http://www.w3.org/2000/svg">
<path d="M119.513 34.8407C114.989 34.8407 112.053 36.5133 109.276 40.8938C107.292 36.1947 103.641 34.9203 100.308 34.9203C97.6894 34.9203 94.1183 35.7965 92.2137 39.3009L91.817 36.7522C91.7376 36.115 91.1821 35.6372 90.5472 35.6372H85.1509C84.4367 35.6372 83.8018 36.1947 83.8018 36.9911V66.5398C83.8018 67.2566 84.3573 67.8938 85.1509 67.8938H91.4202C92.1344 67.8938 92.7693 67.3363 92.7693 66.5398V50.6106C92.7693 46.9469 94.6738 43.5221 98.1656 43.5221C101.816 43.5221 103.562 46.3097 103.562 50.531V66.4602C103.562 67.177 104.117 67.8141 104.911 67.8141H111.101C111.815 67.8141 112.45 67.2566 112.45 66.4602V50.531C112.45 46.8672 114.037 43.6814 117.608 43.6814C121.179 43.6814 122.766 46.3894 122.766 50.3717V66.4602C122.766 67.177 123.322 67.8141 124.116 67.8141H130.464C131.178 67.8141 131.813 67.2566 131.813 66.4602V50.2124C131.734 38.2655 125.861 34.8407 119.513 34.8407Z" fill="white"/>
<path d="M62.5339 34.6814C58.7248 34.6814 55.1537 35.8761 52.3761 39.3008V21.5398C52.3761 20.823 51.7413 20.1858 51.0271 20.1858H44.2023C43.4087 20.1858 42.8532 20.7433 42.8532 21.5398V66.5398C42.8532 67.2566 43.4881 67.8938 44.2023 67.8938H50.1541C50.789 67.8938 51.4239 67.4159 51.5032 66.7787L51.9 63.7522C54.9156 67.6548 58.5661 68.5309 62.6927 68.5309C72.2156 68.5309 78.7229 61.761 78.7229 51.646C78.6436 41.053 71.9775 34.6814 62.5339 34.6814ZM61.5023 59.9292C56.8995 59.9292 53.1697 56.1858 53.1697 51.5663C53.1697 46.9469 56.8995 43.2035 61.5023 43.2035C66.105 43.2035 69.8349 46.9469 69.8349 51.5663C69.8349 56.1858 66.105 59.9292 61.5023 59.9292Z" fill="white"/>
<path d="M113.323 19.6283C111.974 19.6283 111.022 20.2655 110.466 20.9823V18.4336V17.9558V17.2389C110.466 17.0796 110.387 17 110.228 17H109.514H109.355H108.72C108.561 17 108.482 17.0796 108.482 17.2389V18.354V26.7168V27.7522V28.469C108.482 28.6283 108.561 28.708 108.72 28.708H110.149C110.307 28.708 110.387 28.6283 110.387 28.469V27.7522V27.354C110.942 28.2301 111.974 28.7876 113.402 28.7876C116.021 28.7876 117.529 26.7168 117.529 24.2478C117.45 21.6991 115.942 19.6283 113.323 19.6283ZM112.926 26.9558C111.339 26.9558 110.466 25.7611 110.466 24.1681C110.466 22.5752 111.418 21.3805 112.926 21.3805C114.434 21.3805 115.386 22.5752 115.386 24.1681C115.386 25.7611 114.434 26.9558 112.926 26.9558Z" fill="white"/>
<path d="M134.829 19.6283C133.4 19.6283 132.448 20.2655 132.131 20.9823V20.1062C132.131 19.9469 132.051 19.8672 131.893 19.8672H131.258H131.178H131.099H130.464C130.305 19.8672 130.226 19.9469 130.226 20.1062V20.823V21.2212V27.354V27.8318V28.469C130.226 28.6283 130.305 28.7079 130.464 28.7079H131.178H131.337H132.051C132.21 28.7079 132.289 28.6283 132.289 28.469V27.8318V23.531C132.289 22.177 133.083 21.3805 134.432 21.3805C135.384 21.3805 136.178 22.177 136.178 23.1327V27.8318V28.469C136.178 28.6283 136.257 28.7079 136.416 28.7079H137.13H137.289H138.003C138.162 28.7079 138.241 28.6283 138.241 28.469V27.8318V27.354V23.0531C138.162 21.0619 136.972 19.6283 134.829 19.6283Z" fill="white"/>
<path d="M144.352 21.3805C145.383 21.3805 146.098 21.938 146.415 22.7345C146.415 22.7345 146.415 22.7345 146.415 22.8141C146.415 22.8938 146.574 22.9734 146.653 22.9734H146.733H147.129H148.161C148.32 22.9734 148.399 22.8938 148.399 22.7345C148.399 22.7345 148.399 22.2566 148.002 21.5398C148.002 21.5398 148.002 21.5398 148.002 21.4602C148.002 21.4602 148.002 21.3805 147.923 21.3805C147.447 20.6637 146.733 20.2655 146.733 20.2655C146.098 19.8672 145.304 19.6283 144.352 19.6283C141.733 19.6283 139.908 21.6991 139.908 24.1681C139.908 26.7168 141.733 28.7079 144.352 28.7079C145.304 28.7079 146.098 28.469 146.733 28.0708C146.733 28.0708 147.447 27.6725 147.923 26.9557C147.923 26.9557 147.923 26.8761 148.002 26.8761C148.002 26.8761 148.002 26.7964 148.082 26.7964C148.082 26.7964 148.082 26.7964 148.082 26.7168C148.478 26.0796 148.478 25.6017 148.478 25.6017C148.478 25.4425 148.399 25.3628 148.24 25.3628H146.733C146.653 25.3628 146.494 25.4425 146.494 25.5221C146.177 26.3186 145.463 26.8761 144.431 26.8761C143.003 26.8761 142.05 25.6814 142.05 24.0885C141.971 22.5752 142.844 21.3805 144.352 21.3805Z" fill="white"/>
<path d="M154.43 19.6283C151.653 19.6283 149.828 21.7787 149.828 24.1681C149.828 26.5575 151.573 28.7079 154.43 28.7079C157.287 28.7079 159.033 26.6371 159.033 24.1681C159.033 21.6991 157.208 19.6283 154.43 19.6283ZM154.43 26.9557C153.002 26.9557 151.891 25.8407 151.891 24.1681C151.891 22.4956 153.002 21.3805 154.43 21.3805C155.938 21.3805 156.97 22.4956 156.97 24.1681C156.97 25.9203 155.859 26.9557 154.43 26.9557Z" fill="white"/>
<path d="M127.528 19.8673H126.179C126.02 19.8673 125.941 19.9469 125.941 20.1062V21.1416C125.385 20.2655 124.354 19.708 122.925 19.708C120.306 19.708 118.799 21.7788 118.799 24.2478C118.799 26.7169 120.306 28.7877 122.925 28.7877C124.274 28.7877 125.306 28.2301 125.941 27.354V27.5133V28.5487C125.941 28.708 126.02 28.7877 126.179 28.7877H127.607C127.766 28.7877 127.845 28.708 127.845 28.5487V27.8319V27.4337V21.1416V20.7434V20.1062C127.766 19.9469 127.687 19.8673 127.528 19.8673ZM123.322 26.9558C121.814 26.9558 120.862 25.7611 120.862 24.1682C120.862 22.5753 121.814 21.3806 123.322 21.3806C124.909 21.3806 125.782 22.5753 125.782 24.1682C125.861 25.7611 124.909 26.9558 123.322 26.9558Z" fill="white"/>
<path d="M15.9509 37.9469C15.9509 36.354 17.3794 35.0796 18.9665 35.3186C27.4578 36.5929 33.9651 43.9204 33.9651 52.8407C33.9651 66.6991 22.8551 69.7257 18.0936 70.3628C16.9032 70.5221 15.9509 69.5664 15.9509 68.4513C15.9509 68.3717 15.9509 45.9912 15.9509 37.9469Z" fill="#462A71"/>
<path d="M1.98394 53.9558H9.84037C13.1734 53.9558 15.8716 51.2478 15.8716 47.9027V20.5045C15.8716 19.3894 14.9986 18.5133 13.8876 18.5133H10.3165C4.60275 18.5133 0 23.1328 0 28.8673V51.885C0 53 0.872936 53.9558 1.98394 53.9558Z" fill="white"/>
<path d="M165.302 63.5133C170.143 61.0443 172.286 56.5841 172.445 51.8054C172.445 47.8231 171.413 44.5576 169.667 41.9292L172.683 38.4248C173.159 37.8673 173.079 36.9115 172.445 36.4337L167.604 32.6903C166.969 32.2124 166.096 32.3717 165.699 32.9292L163.08 36.354C160.541 35.1593 157.684 34.6018 154.827 34.6018C145.542 34.6018 136.892 40.2567 136.892 51.5664C136.892 61.9204 143.955 68.3717 154.827 68.3717C160.779 68.3717 162.922 70.8407 162.922 74.1062C162.922 78.2478 159.033 80.239 154.748 80.239C150.621 80.239 147.288 78.885 146.574 74.5841C146.495 73.9469 145.86 73.4691 145.225 73.4691H138.797C138.003 73.4691 137.368 74.1062 137.448 74.9027C137.924 83.5841 143.876 88.7611 154.748 88.7611C163.874 88.7611 172.762 83.9823 172.762 74.0266C172.683 72.354 172.683 66.8585 165.302 63.5133ZM154.668 59.8496C150.066 59.8496 146.336 56.1062 146.336 51.4868C146.336 46.8673 150.066 43.1239 154.668 43.1239C159.271 43.1239 163.001 46.8673 163.001 51.4868C163.001 56.1062 159.271 59.8496 154.668 59.8496Z" fill="white"/>
</svg>
